
<svg xmlns="http://www.w3.org/2000/svg" version="1.1" xmlns:xlink="http://www.w3.org/1999/xlink" preserveAspectRatio="none" x="0px" y="0px" width="449px" height="7px" viewBox="0 0 449 7">
<defs>
<g id="Layer0_0_FILL">
<path fill="#CCCCCC" stroke="none" d="
M 255 35
L 255 33 30 33 30 35 255 35 Z"/>
</g>

<g id="Layer0_1_FILL">
<path fill="#CCCCCC" stroke="none" d="
M 480 35
L 480 33 255 33 255 35 480 35 Z"/>
</g>

<g id="Layer0_2_FILL">
<path fill="#CCCCCC" stroke="none" d="
M 259 34
Q 259 32.35 257.8 31.2 256.65 30 255 30 253.35 30 252.15 31.2 251 32.35 251 34 251 35.65 252.15 36.8 253.35 38 255 38 256.65 38 257.8 36.8 259 35.65 259 34 Z"/>
</g>
</defs>

<g transform="matrix( 0.986663818359375, 0, 0, 0.5, -29.6,-13.5) ">
<use xlink:href="#Layer0_0_FILL"/>
</g>

<g transform="matrix( 0.986663818359375, 0, 0, 0.5, -24.6,-13.5) ">
<use xlink:href="#Layer0_1_FILL"/>
</g>

<g transform="matrix( 0.875, 0, 0, 0.875, 1.35,-26.25) ">
<use xlink:href="#Layer0_2_FILL"/>
</g>
</svg>
