
<svg xmlns="http://www.w3.org/2000/svg" version="1.1" xmlns:xlink="http://www.w3.org/1999/xlink" preserveAspectRatio="none" x="0px" y="0px" width="449px" height="7px" viewBox="0 0 449 7">
<defs>
<g id="Layer0_0_FILL">
<path fill="#CCCCCC" stroke="none" d="
M 255 95
L 255 93 30 93 30 95 255 95 Z"/>
</g>

<g id="Layer0_1_FILL">
<path fill="#CCCCCC" stroke="none" d="
M 480 95
L 480 93 255 93 255 95 480 95 Z"/>
</g>

<g id="Layer0_2_FILL">
<path fill="#000000" stroke="none" d="
M 257.8 96.8
Q 259 95.65 259 94 259 92.35 257.8 91.2 256.65 90 255 90 253.35 90 252.15 91.2 251 92.35 251 94 251 95.65 252.15 96.8 253.35 98 255 98 256.65 98 257.8 96.8 Z"/>
</g>
</defs>

<g transform="matrix( 0.986663818359375, 0, 0, 0.5, -29.6,-43.5) ">
<use xlink:href="#Layer0_0_FILL"/>
</g>

<g transform="matrix( 0.986663818359375, 0, 0, 0.5, -24.6,-43.5) ">
<use xlink:href="#Layer0_1_FILL"/>
</g>

<g transform="matrix( 0.875, 0, 0, 0.875, 1.35,-78.75) ">
<use xlink:href="#Layer0_2_FILL"/>
</g>
</svg>
